<?xml version="1.0" encoding="UTF-8" standalone="no"?>
<!DOCTYPE svg PUBLIC "-//W3C//DTD SVG 1.1//EN" "http://www.w3.org/Graphics/SVG/1.1/DTD/svg11.dtd">
<svg width="100%" height="100%" viewBox="0 0 71 67" version="1.1" xmlns="http://www.w3.org/2000/svg" xmlns:xlink="http://www.w3.org/1999/xlink" xml:space="preserve" xmlns:serif="http://www.serif.com/" style="fill-rule:evenodd;clip-rule:evenodd;stroke-linejoin:round;stroke-miterlimit:2;">
    <g transform="matrix(1,0,0,1,-14.540741,-16.780834)">
        <g transform="matrix(1.348375,0,0,1.348375,11.120617,-60.566719)">
            <path d="M6.888,78.625C7.11,78.753 7.187,79.036 7.06,79.258C6.932,79.48 6.649,79.557 6.427,79.429L2.769,77.329C2.625,77.247 2.536,77.094 2.536,76.928L2.536,74.736C2.536,69.21 7.007,62.123 12.533,58.933C15.538,57.198 18.252,56.966 20.144,57.92L20.167,57.933L42.074,70.578C42.292,70.704 42.37,70.982 42.248,71.203C42.126,71.424 41.85,71.507 41.626,71.389C39.948,70.507 37.532,70.793 34.838,72.348C29.586,75.38 25.306,82.096 25.306,87.348L25.306,89.466C25.306,89.632 25.218,89.785 25.074,89.867C24.931,89.95 24.755,89.951 24.611,89.868L11.879,82.559C11.657,82.431 11.58,82.148 11.707,81.926C11.835,81.704 12.118,81.627 12.34,81.755L24.379,88.666L24.379,87.348C24.379,81.822 28.849,74.735 34.375,71.545C36.11,70.543 37.748,70.042 39.187,69.982L19.715,58.742L19.705,58.737C18.03,57.905 15.647,58.206 12.996,59.736C7.744,62.768 3.464,69.484 3.464,74.736L3.464,76.659L6.888,78.625Z"/>
        </g>
        <g transform="matrix(1.348375,0,0,1.348375,11.120617,-60.566719)">
            <g transform="matrix(0,0.44384,-0.44384,0.256251,56.798684,47.371861)">
                <path d="M78.706,27.523L78.706,71.478C78.706,71.801 78.476,72.199 78.103,72.522C77.73,72.845 77.27,73.044 76.897,73.044L47.897,73.044C41.974,73.044 36.561,70.785 32.524,67.056C32.207,66.763 32.407,66.134 32.975,65.641L76.895,27.525C77.268,27.201 77.728,27.001 78.102,27.001C78.476,27.001 78.706,27.2 78.706,27.523ZM76.294,30.137L35.217,65.786C38.953,68.997 43.795,70.956 49.103,70.956L76.294,70.956L76.294,30.137Z"/>
            </g>
        </g>
        <g transform="matrix(1.348375,0,0,1.348375,11.120617,-60.566719)">
            <g transform="matrix(-0.384376,-0.22192,0.44384,-0.256251,38.20389,122.295508)">
                <path d="M49.103,73.044C42.514,73.044 36.542,70.282 32.219,65.96C28.003,61.744 25.294,55.906 25.294,49.478C25.294,37.027 35.447,26.956 47.897,26.956L66.491,26.956C66.864,26.956 67.323,27.155 67.696,27.478C68.07,27.801 68.299,28.199 68.299,28.522L68.299,72.522C68.299,72.845 68.07,73.044 67.696,73.044L49.103,73.044ZM47.897,70.956L65.888,70.956L65.888,29.044L49.103,29.044C37.269,29.044 27.706,38.688 27.706,50.522C27.706,56.237 29.926,61.398 33.674,65.147C37.316,68.789 42.344,70.956 47.897,70.956Z"/>
            </g>
        </g>
        <g transform="matrix(1.348375,0,0,1.348375,11.120617,-60.566719)">
            <g transform="matrix(1,0,0,1,-28.314413,30.851608)">
                <path d="M72.917,58.495L72.707,58.556C72.7,58.556 72.693,58.556 72.686,58.556C72.686,58.556 72.691,58.557 72.701,58.558L72.666,58.568C72.584,58.568 72.505,58.547 72.434,58.506L55.517,48.78C55.409,48.718 55.33,48.615 55.299,48.495C55.268,48.374 55.287,48.246 55.351,48.139C57.176,45.11 59.791,42.367 62.689,40.693C65.542,39.046 68.133,38.752 70.005,39.543C71.923,40.354 73.149,42.297 73.149,45.222L73.149,58.093C73.149,58.265 73.056,58.415 72.917,58.495ZM72.917,58.495C72.815,58.553 72.734,58.558 72.701,58.558L72.707,58.556C72.783,58.552 72.855,58.531 72.917,58.495ZM72.222,57.315L72.222,45.222C72.222,42.757 71.261,41.081 69.644,40.397C67.98,39.694 65.689,40.032 63.153,41.496C60.511,43.021 58.122,45.48 56.393,48.215L72.222,57.315Z"/>
            </g>
        </g>
        <g transform="matrix(1.348375,0,0,1.348375,11.120617,-60.566719)">
            <path d="M11.994,82.625C11.772,82.497 11.695,82.214 11.822,81.992C11.95,81.77 12.233,81.694 12.455,81.821L25.073,89.064C25.217,89.147 25.306,89.3 25.306,89.466L25.306,100.22C25.306,100.385 25.217,100.538 25.074,100.621C24.931,100.704 24.754,100.704 24.61,100.621L2.768,88.012C2.625,87.93 2.536,87.777 2.536,87.611L2.536,76.931C2.536,76.765 2.625,76.612 2.768,76.53C2.911,76.447 3.087,76.446 3.231,76.528L6.752,78.547C6.974,78.674 7.051,78.958 6.923,79.179C6.796,79.401 6.513,79.478 6.291,79.351L3.464,77.731L3.464,87.343L24.379,99.417L24.379,89.735L11.994,82.625Z"/>
        </g>
        <g transform="matrix(1.348375,0,0,1.348375,11.120617,-60.566719)">
            <g transform="matrix(0,1,-1,-0.57735,79.111512,101.196255)">
                <path d="M18.6,67.727C19.293,65.962 21.031,64.727 23.042,64.727C24.514,64.727 25.848,65.363 26.814,66.329C27.732,67.247 28.345,68.522 28.345,69.922C28.345,72.543 26.198,74.654 23.577,74.654C22.429,74.654 21.361,74.261 20.495,73.638C19.783,73.126 19.189,72.446 18.795,71.654L7.458,71.654C7.292,71.654 7.088,71.566 6.923,71.422C6.757,71.279 6.655,71.102 6.655,70.959L6.655,65.959C6.655,65.815 6.757,65.727 6.923,65.727L10.148,65.727C10.622,65.727 11.076,65.954 11.411,66.289L12.849,67.727L18.6,67.727ZM10.784,66.668C10.764,66.664 10.714,66.654 10.683,66.654L7.726,66.654L7.726,70.727L18.798,70.727C18.939,70.727 19.109,70.791 19.26,70.901C19.412,71.01 19.528,71.154 19.577,71.291C19.829,72.004 20.274,72.62 20.877,73.053C21.488,73.493 22.232,73.727 23.042,73.727C25.389,73.727 27.274,71.805 27.274,69.459C27.274,68.375 26.879,67.4 26.168,66.689C25.504,66.026 24.589,65.654 23.577,65.654C21.728,65.654 20.172,66.856 19.588,68.506C19.554,68.6 19.462,68.654 19.334,68.654L13.077,68.654C12.891,68.654 12.658,68.542 12.487,68.371L10.784,66.668Z"/>
            </g>
        </g>
    </g>
</svg>
